<svg width="512" height="512" viewBox="0 0 512 512" fill="none" xmlns="http://www.w3.org/2000/svg">
<path d="M492 351.983C503.046 351.983 512 343.029 512 331.983V217.983C512 173.871 476.112 137.983 432 137.983H349.635C368.427 129.985 376.243 123.88 380.642 119.481C380.642 119.481 380.642 119.481 380.643 119.481C407.936 92.188 407.936 47.779 380.642 20.486C353.349 -6.80701 308.942 -6.80701 281.647 20.486C275.872 26.262 267.153 37.936 255.073 72.607C242.992 37.936 234.274 26.261 228.498 20.486C201.205 -6.80701 156.798 -6.80701 129.503 20.486C102.21 47.779 102.21 92.188 129.503 119.481C129.504 119.481 129.504 119.481 129.504 119.481C133.903 123.88 141.719 129.986 160.511 137.983H80C35.888 137.983 0 173.871 0 217.983V431.983C0 476.095 35.888 511.983 80 511.983H432C476.112 511.983 512 476.095 512 431.983C512 420.937 503.046 411.983 492 411.983C480.954 411.983 472 420.937 472 431.983C472 454.039 454.056 471.983 432 471.983H276V178.937C297.565 183.351 315.257 195.246 328.756 214.474C343.504 235.482 349 259.671 349 269.983C349 281.029 357.954 289.983 369 289.983C380.046 289.983 389 281.029 389 269.983C389 250.416 380.495 218.558 361.494 191.492C358.393 187.075 354.808 182.508 350.715 177.983H432C454.056 177.983 472 195.927 472 217.983V331.983C472 343.029 480.954 351.983 492 351.983ZM157.788 91.198C152.12 85.53 149 77.996 149 69.983C149 61.97 152.12 54.436 157.786 48.77C169.484 37.074 188.516 37.074 200.213 48.77C201.101 49.658 209.285 58.738 223.149 103.643C224.728 108.757 226.211 113.789 227.569 118.553C222.871 117.213 217.911 115.752 212.861 114.195C167.788 100.296 158.678 92.089 157.788 91.198ZM236 471.983H80C57.944 471.983 40 454.039 40 431.983V217.983C40 195.927 57.944 177.983 80 177.983H157.316C146.416 189.805 137.15 204.102 129.671 220.814C110.49 263.679 109 309.086 109 321.983C109 333.029 117.954 341.983 129 341.983C140.046 341.983 149 333.029 149 321.983C149 314.229 149.828 273.701 166.184 237.152C181.294 203.384 204.247 184.101 236 178.627V471.983ZM297.486 114.13C292.372 115.709 287.34 117.192 282.577 118.55C283.935 113.787 285.417 108.756 286.996 103.642C300.859 58.738 309.044 49.657 309.931 48.769C315.781 42.92 323.461 39.997 331.145 39.997C338.827 39.997 346.51 42.922 352.358 48.769C358.025 54.436 361.145 61.969 361.145 69.982C361.145 77.995 358.025 85.529 352.358 91.195C351.47 92.083 342.387 100.268 297.486 114.13Z" fill="black"/>
</svg>
