<svg width="512" height="512" viewBox="0 0 512 512" fill="none" xmlns="http://www.w3.org/2000/svg">
<path d="M512 150C512 127.91 494.09 110 472 110C449.91 110 432 127.91 432 150C432 164.805 440.047 177.719 452 184.637V269C452 280.027 443.027 289 432 289H410V205C410 91.9648 318.035 0 205 0C91.9648 0 0 91.9648 0 205V432C0 476.113 35.8867 512 80 512H330C374.113 512 410 476.113 410 432V402C410 390.953 401.047 382 390 382H318V294H370V309C370 320.047 378.953 329 390 329H432C465.086 329 492 302.086 492 269V184.637C503.953 177.719 512 164.805 512 150ZM131 382V294H186V382H131ZM91 382H40V294H91V382ZM370 432C370 454.055 352.055 472 330 472H80C57.9453 472 40 454.055 40 432V422H370V432ZM278 382H226V294H278V382ZM40 254V205C40 114.02 114.02 40 205 40C295.98 40 370 114.02 370 205V254H40ZM225.988 91C225.988 102.047 217.035 111 205.988 111C194.945 111 185.988 102.047 185.988 91C185.988 79.9531 194.945 71 205.988 71C217.035 71 225.988 79.9531 225.988 91ZM306 122C306 133.047 297.047 142 286 142C274.953 142 266 133.047 266 122C266 110.953 274.953 102 286 102C297.047 102 306 110.953 306 122ZM146 122C146 133.047 137.047 142 126 142C114.953 142 106 133.047 106 122C106 110.953 114.953 102 126 102C137.047 102 146 110.953 146 122ZM112 199.301C112 210.348 103.047 219.301 92 219.301C80.9531 219.301 72 210.348 72 199.301C72 188.254 80.9531 179.301 92 179.301C103.047 179.301 112 188.254 112 199.301ZM339 199.301C339 210.348 330.047 219.301 319 219.301C307.953 219.301 299 210.348 299 199.301C299 188.254 307.953 179.301 319 179.301C330.047 179.301 339 188.254 339 199.301Z" fill="black"/>
</svg>
