<?xml version="1.0" encoding="UTF-8"?> <svg xmlns="http://www.w3.org/2000/svg" height="512pt" viewBox="0 0 512 512" width="512pt"><path d="m237 155c0-11.046875 8.953125-20 20-20s20 8.953125 20 20-8.953125 20-20 20-20-8.953125-20-20zm-50 20c11.046875 0 20-8.953125 20-20s-8.953125-20-20-20-20 8.953125-20 20 8.953125 20 20 20zm140 0c11.046875 0 20-8.953125 20-20s-8.953125-20-20-20-20 8.953125-20 20 8.953125 20 20 20zm167.847656-72.382812c-6.839844-8.675782-19.417968-10.160157-28.089844-3.320313-8.671874 6.839844-10.160156 19.414063-3.320312 28.085937 5.601562 7.105469 8.5625 15.660157 8.5625 24.738282v100c0 11.046875 8.953125 20 20 20s20-8.953125 20-20v-100c0-17.894532-6.09375-35.476563-17.152344-49.503906zm-2.847656 229.503906c-11.046875 0-20 8.953125-20 20 0 22.058594-17.945312 40-40 40h-352c-22.054688 0-40-17.941406-40-40v-200c0-9.132813 2.992188-17.726563 8.65625-24.855469 6.875-8.648437 5.433594-21.230469-3.210938-28.101563-8.648437-6.875-21.230468-5.433593-28.101562 3.214844-11.183594 14.070313-17.34375 31.738282-17.34375 49.742188v200c0 44.113281 35.886719 80 80 80h156v39.878906h-70c-11.046875 0-20 8.953125-20 20s8.953125 20 20 20h180c11.046875 0 20-8.953125 20-20s-8.953125-20-20-20h-70v-39.878906h156c44.113281 0 80-35.886719 80-80 0-11.046875-8.953125-20-20-20zm-374.058594-93.128906c-18.320312-25.253907-27.941406-54.523438-27.941406-85.363282 0-84.710937 74.46875-153.628906 166-153.628906 91.386719 0 165.765625 68.695312 166 153.222656v.148438.257812.148438c-.234375 84.527344-74.613281 153.222656-166 153.222656-21.488281 0-42.027344-3.539062-61.179688-10.53125l-76.753906 33.832031c-2.59375 1.144531-5.339844 1.699219-8.0625 1.699219-5.097656 0-10.117187-1.945312-13.925781-5.640625-5.84375-5.667969-7.671875-14.308594-4.621094-21.855469zm12.058594-85.363282c0 25.246094 9.007812 49.15625 26.046875 69.144532 4.832031 5.671874 6.113281 13.5625 3.320313 20.472656l-12.363282 30.585937 39.320313-17.335937c5.0625-2.230469 10.824219-2.265625 15.914062-.09375 16.484375 7.03125 34.570313 10.597656 53.761719 10.597656 69.429688 0 125.925781-50.902344 126-113.5-.074219-62.597656-56.570312-113.5-126-113.5-69.476562 0-126 50.972656-126 113.628906zm0 0"></path></svg> 