<?xml version="1.0" encoding="UTF-8"?> <svg xmlns="http://www.w3.org/2000/svg" width="32" height="32" viewBox="0 0 32 32" fill="none"><title>Speel bewust 18+</title><path fill-rule="evenodd" clip-rule="evenodd" d="M20 1.337V1.542C20 1.66641 19.9724 1.78928 19.9192 1.90177C19.8661 2.01426 19.7887 2.1136 19.6926 2.19266C19.5966 2.27171 19.4842 2.32852 19.3636 2.35901C19.243 2.3895 19.1171 2.39291 18.995 2.369C17.738 2.123 16.74 2 16 2C8.268 2 2 8.268 2 16C2 23.732 8.268 30 16 30C23.732 30 30 23.732 30 16C30 15.26 29.877 14.262 29.63 13.005C29.6061 12.8827 29.6095 12.7567 29.6401 12.6359C29.6707 12.5152 29.7277 12.4027 29.807 12.3066C29.8863 12.2105 29.9858 12.1331 30.0986 12.0801C30.2113 12.0271 30.3344 11.9997 30.459 12H30.664C30.8994 12 31.1272 12.0831 31.3074 12.2345C31.4875 12.386 31.6085 12.5961 31.649 12.828C31.883 14.173 32 15.231 32 16C32 24.837 24.837 32 16 32C7.163 32 0 24.837 0 16C0 7.163 7.163 0 16 0C16.77 0 17.827 0.116999 19.172 0.351999C19.4039 0.392484 19.614 0.51346 19.7655 0.693632C19.9169 0.873805 20 1.10163 20 1.337Z" fill="black"></path><path fill-rule="evenodd" clip-rule="evenodd" d="M10.105 21V13.44H8.56V11.58C9.63 11.58 10.285 11.22 10.525 10.5H12.385V21H10.105ZM19.12 21.18C17.92 21.18 16.975 20.873 16.285 20.258C15.595 19.642 15.25 18.815 15.25 17.775C15.25 16.605 15.83 15.765 16.99 15.255C16.6155 15.0626 16.2935 14.7819 16.052 14.437C15.787 14.072 15.655 13.63 15.655 13.11C15.655 12.26 15.96 11.583 16.57 11.078C17.18 10.572 18.03 10.32 19.12 10.32C20.2 10.32 21.047 10.572 21.662 11.078C22.278 11.583 22.585 12.26 22.585 13.11C22.585 13.61 22.45 14.045 22.18 14.415C21.91 14.785 21.6 15.055 21.25 15.225C21.78 15.465 22.205 15.81 22.525 16.26C22.845 16.71 23.005 17.215 23.005 17.775C23.005 18.815 22.66 19.642 21.97 20.258C21.28 20.873 20.33 21.18 19.12 21.18ZM19.12 14.31C19.48 14.31 19.775 14.213 20.005 14.017C20.1152 13.9278 20.2036 13.8145 20.2634 13.6859C20.3232 13.5573 20.3528 13.4168 20.35 13.275C20.351 13.1388 20.3203 13.0042 20.2605 12.8819C20.2006 12.7596 20.1131 12.6528 20.005 12.57C19.775 12.38 19.48 12.285 19.12 12.285C18.74 12.285 18.443 12.377 18.228 12.562C18.1238 12.6487 18.0406 12.7579 17.9846 12.8814C17.9287 13.0049 17.9015 13.1395 17.905 13.275C17.905 13.585 18.01 13.835 18.22 14.025C18.43 14.215 18.73 14.31 19.12 14.31ZM19.12 19.155C19.59 19.155 19.977 19.023 20.283 18.757C20.588 18.492 20.74 18.16 20.74 17.76C20.74 17.34 20.588 17.003 20.282 16.748C19.977 16.492 19.59 16.365 19.12 16.365C18.63 16.365 18.238 16.49 17.943 16.74C17.647 16.99 17.5 17.33 17.5 17.76C17.5 18.17 17.65 18.505 17.95 18.765C18.25 19.025 18.64 19.155 19.12 19.155ZM29 3H32V5H29V8H27V5H24V3H27V0H29V3Z" fill="black"></path></svg> 