<?xml version="1.0" encoding="UTF-8"?> <svg xmlns="http://www.w3.org/2000/svg" height="512" viewBox="0 0 60 60" width="512"><title>Mobile Friendly</title><g id="033---Mobile-Friendly-Site"><path id="Shape" d="m46 32c-3.7664331-.0004597-7.3730533 1.5218947-10 4.221v-32.221c0-2.209139-1.790861-4-4-4h-28c-2.209139 0-4 1.790861-4 4v44c0 2.209139 1.790861 4 4 4h28c.4315237-.0015046.8599963-.0724102 1.269-.21 2.8837228 6.3372649 9.9877062 9.590637 16.6696849 7.6341237 6.6819786-1.9565134 10.9092768-8.5277356 9.9194668-15.4195466-.98981-6.8918111-6.8956253-12.0077036-13.8581517-12.0045771zm-13.41 10h-30.59v-32h32v28.826c-.6010738.9947732-1.0747834 2.0611239-1.41 3.174zm-28.59-40h28c1.1045695 0 2 .8954305 2 2v4h-32v-4c0-1.1045695.8954305-2 2-2zm28 48h-28c-1.1045695 0-2-.8954305-2-2v-4h30.16c-.3086851 1.9752258-.1699395 3.9945557.406 5.909-.1832598.057602-.3739203.0882559-.566.091zm14 8c-6.627417 0-12-5.372583-12-12s5.372583-12 12-12 12 5.372583 12 12c-.0071648 6.624447-5.375553 11.9928352-12 12z"></path><path id="Shape" d="m18 13c-7.1797017 0-13 5.8202983-13 13s5.8202983 13 13 13 13-5.8202983 13-13c-.008266-7.1762751-5.8237249-12.991734-13-13zm0 24c-6.0751322 0-11-4.9248678-11-11s4.9248678-11 11-11 11 4.9248678 11 11c-.0071635 6.0721626-4.9278374 10.9928365-11 11z"></path><path id="Path" d="m22 6h1c.5522847 0 1-.44771525 1-1s-.4477153-1-1-1h-1c-.5522847 0-1 .44771525-1 1s.4477153 1 1 1z"></path><path id="Path" d="m13 6h5c.5522847 0 1-.44771525 1-1s-.4477153-1-1-1h-5c-.5522847 0-1 .44771525-1 1s.4477153 1 1 1z"></path><path id="Path" d="m20 46h-4c-.5522847 0-1 .4477153-1 1s.4477153 1 1 1h4c.5522847 0 1-.4477153 1-1s-.4477153-1-1-1z"></path><path id="Path" d="m51.5 39.136c-.2291308-.1337383-.5020155-.1709431-.7585854-.1034247s-.4757937.2342255-.6094146.4634247l-6.342 10.88-2.083-2.083c-.3923789-.3789722-1.0160848-.3735524-1.4018186.0121814s-.3911536 1.0094397-.0121814 1.4018186l3 3c.1874927.1875494.4418052.2929434.707.293.042787-.0001428.0855282-.0028141.128-.008.3077599-.0396638.5796691-.2199515.736-.488l7-12c.1334038-.2296159.1699986-.5028645.1017148-.7594914-.0682837-.2566269-.2358379-.4755551-.4657148-.6085086z"></path><path id="Path" d="m23.316 28.052c-.5235354-.1740931-1.0891532.1087159-1.264.632-.008.023-.81 2.316-4.052 2.316-3.188 0-4.021-2.23-4.052-2.316-.1128959-.3394023-.398285-.5927937-.748664-.6647242-.350379-.0719304-.712517.0485282-.95.3160001-.2374831.2674719-.3142319.6413218-.201336.9807241.052.151 1.285 3.684 5.952 3.684s5.9-3.533 5.948-3.684c.1740931-.5235354-.1087159-1.0891532-.632-1.264z"></path><path id="Path" d="m14 24c.5522847 0 1-.4477153 1-1v-2c0-.5522847-.4477153-1-1-1s-1 .4477153-1 1v2c0 .5522847.4477153 1 1 1z"></path><path id="Path" d="m22 24c.5522847 0 1-.4477153 1-1v-2c0-.5522847-.4477153-1-1-1s-1 .4477153-1 1v2c0 .5522847.4477153 1 1 1z"></path></g></svg> 