<?xml version="1.0" encoding="UTF-8"?> <svg xmlns="http://www.w3.org/2000/svg" id="Capa_1" height="512" viewBox="0 0 512 512" width="512"><title>Trustworthy</title><g><g><path d="m406.875 297.263c14.906-42.232 22.545-86.049 22.545-130.461v-100.872h-55.222c-52.719 0-102.276-20.53-139.553-57.806-10.645-10.653-29.225-10.653-39.87 0-37.277 37.277-86.842 57.806-139.553 57.806h-55.222v100.872c0 139.355 74.777 269.551 195.155 339.778 5.929 3.452 12.693 5.285 19.555 5.285s13.618-1.833 19.555-5.293c26.657-15.55 51.291-34.403 73.645-55.825 17.317 36.079 54.107 61.11 96.735 61.11 59.194 0 107.355-48.161 107.355-107.355 0-58.433-46.964-106.033-105.125-107.239zm-180.934 195.039c-6.805 3.98-15.657 3.98-22.462 0-115.324-67.262-186.963-192-186.963-325.5v-84.356h38.706c57.129 0 110.84-22.247 151.23-62.646 4.344-4.344 12.172-4.344 16.516 0 40.398 40.398 94.109 62.646 151.23 62.646h38.706v84.356c0 44.874-8.126 89.129-24.014 131.642-6.772.999-13.329 2.618-19.629 4.823 17.763-43.314 27.128-90.046 27.128-136.465v-67.84h-22.189c-57.047 0-111.723-20.951-153.963-58.996l-5.525-4.98-5.525 4.98c-42.24 38.037-96.917 58.996-153.963 58.996h-22.192v67.84c0 127.034 68.005 246.008 177.491 310.487l4.187 2.469 4.187-2.469c29.101-17.144 55.519-38.417 78.873-63.282.611 6.887 1.891 13.576 3.749 20.034-22.702 22.554-48.054 42.208-75.578 58.261zm72.72-104.092c-1.305 1.552-2.643 3.072-3.972 4.6-5.739-22.743-20.942-41.86-41.133-52.769 23.354-10.603 40.299-32.892 43.247-59.4h.487c18.217 0 33.032-14.815 33.032-33.032 0-7.936-2.932-15.137-7.614-20.835 4.848-8.052 7.614-17.317 7.614-26.731v-9.233c0-22.528-14.419-42.232-35.518-49.218l-2.849-5.706c-8.844-17.681-26.616-28.664-46.386-28.664h-63.893c-45.535 0-82.581 37.046-82.581 82.581 0 12.503 3.006 24.766 8.44 35.972-5.186 5.83-8.44 13.428-8.44 21.834 0 18.217 14.815 33.032 33.032 33.032h.487c1.842 16.723 9.208 32.223 21.281 44.288 6.433 6.433 13.874 11.479 21.925 15.121-20.207 10.925-35.394 30.068-41.109 52.843-53.909-61.869-85.165-142.088-85.165-226.089v-51.324h5.673c58.674 0 115.018-20.686 159.488-58.401 44.47 37.715 100.814 58.401 159.488 58.401h5.673v51.324c0 50.638-11.669 101.673-33.676 147.778-25.061 16.341-42.807 42.85-47.531 73.628zm-92.209-58.022c-15.443 0-29.96-6.02-40.877-16.937s-16.929-25.435-16.929-40.877v-59.21c2.585.917 5.359 1.412 8.258 1.412 17.482 0 34.989-4.129 50.63-11.949l37.459-18.729c9.109 12.437 21.57 22.231 35.782 28.143v60.342c0 31.868-25.939 57.806-57.806 57.806h-16.517zm-74.323-66.064c-9.109 0-16.516-7.408-16.516-16.516s7.407-16.516 16.516-16.516zm0-74.323v24.774c-3.799 0-7.391.776-10.785 1.957-3.724-8.407-5.731-17.499-5.731-26.731 0-36.426 29.638-66.065 66.065-66.065h63.893c13.469 0 25.592 7.49 31.612 19.539l6.16 12.329 3.683.925c15.773 3.931 26.781 18.027 26.781 34.279v9.233c0 5.896-1.553 11.735-4.369 16.913-3.766-1.495-7.845-2.378-12.139-2.378v-14.212l-5.648-1.883c-14.245-4.748-26.665-14.245-34.998-26.74l-6.07-9.1-50.424 25.212c-13.362 6.681-28.309 10.207-43.239 10.207-4.55 0-8.258-3.708-8.258-8.258s3.708-8.258 8.258-8.258h8.258v-16.516h-8.258c-13.676-.001-24.791 11.106-24.791 24.773zm165.161 41.291c9.109 0 16.516 7.407 16.516 16.516s-7.408 16.516-16.516 16.516zm-109.518 121.492 8.209 16.417-15.955 11.966-2.51-22.611c3.228-2.221 6.664-4.137 10.256-5.772zm26.938-5.88c3.724 0 7.35.388 10.917.991l-7.763 15.525h-6.309l-7.763-15.525c3.56-.611 7.193-.991 10.918-.991zm-1.099 33.033h2.197l6.664 46.625-7.763 7.754-7.754-7.754zm28.028-27.145c3.592 1.635 7.036 3.551 10.257 5.781l-2.502 22.594-15.955-11.966zm-79.145 20.059 4.319 38.862 28.647-21.479-6.02 42.166 25.27 25.278 25.278-25.278-6.02-42.166 28.655 21.479 4.311-38.846c7.73 10.025 12.635 22.28 13.551 35.601-19.811 20.183-41.827 37.706-65.767 52.274-24.254-14.757-46.237-32.421-65.775-52.274.908-13.328 5.813-25.583 13.551-35.617zm242.151 122.699c-50.085 0-90.839-40.754-90.839-90.839s40.754-90.839 90.839-90.839 90.839 40.754 90.839 90.839-40.754 90.839-90.839 90.839z"></path><path d="m379.557 433.802-18.622-18.622-11.677 11.686 30.927 30.926 80.144-89.055-12.271-11.041z"></path><path d="m247.742 280.64h-16.516c0 9.109-7.407 16.516-16.516 16.516s-16.516-7.407-16.516-16.516h-16.516c0 18.217 14.815 33.032 33.032 33.032s33.032-14.815 33.032-33.032z"></path><path d="m189.935 247.608h16.516c0-13.659-11.115-24.774-24.774-24.774s-24.774 11.115-24.774 24.774h16.516c0-4.55 3.708-8.258 8.258-8.258s8.258 3.699 8.258 8.258z"></path><path d="m247.742 239.35c4.55 0 8.258 3.708 8.258 8.258h16.516c0-13.659-11.115-24.774-24.774-24.774s-24.774 11.115-24.774 24.774h16.516c0-4.559 3.708-8.258 8.258-8.258z"></path></g></g></svg> 