<svg width="512" height="512" viewBox="0 0 512 512" fill="none" xmlns="http://www.w3.org/2000/svg">
<path d="M112 160H400C404.243 160 408.313 158.314 411.314 155.314C414.314 152.313 416 148.243 416 144C416 139.757 414.314 135.687 411.314 132.686C408.313 129.686 404.243 128 400 128H112C107.757 128 103.687 129.686 100.686 132.686C97.6857 135.687 96 139.757 96 144C96 148.243 97.6857 152.313 100.686 155.314C103.687 158.314 107.757 160 112 160Z" fill="black"/>
<path d="M400 240H112C107.757 240 103.687 241.686 100.686 244.686C97.6857 247.687 96 251.757 96 256C96 260.243 97.6857 264.313 100.686 267.314C103.687 270.314 107.757 272 112 272H400C404.243 272 408.313 270.314 411.314 267.314C414.314 264.313 416 260.243 416 256C416 251.757 414.314 247.687 411.314 244.686C408.313 241.686 404.243 240 400 240Z" fill="black"/>
<path d="M400 352H112C107.757 352 103.687 353.686 100.686 356.686C97.6857 359.687 96 363.757 96 368C96 372.243 97.6857 376.313 100.686 379.314C103.687 382.314 107.757 384 112 384H400C404.243 384 408.313 382.314 411.314 379.314C414.314 376.313 416 372.243 416 368C416 363.757 414.314 359.687 411.314 356.686C408.313 353.686 404.243 352 400 352Z" fill="black"/>
</svg>
