<svg width="16" height="16" viewBox="0 0 16 16" fill="none" xmlns="http://www.w3.org/2000/svg">
<path d="M13.3334 8V14.6667H2.66675V8" stroke="#000000" stroke-width="1.5" stroke-linecap="round" stroke-linejoin="round"/>
<path d="M14.6666 4.66663H1.33325V7.99996H14.6666V4.66663Z" stroke="#000000" stroke-width="1.5" stroke-linecap="round" stroke-linejoin="round"/>
<path d="M8 14.6666V4.66663" stroke="#000000" stroke-width="1.5" stroke-linecap="round" stroke-linejoin="round"/>
<path d="M7.99992 4.66671H4.99992C4.55789 4.66671 4.13397 4.49111 3.82141 4.17855C3.50885 3.86599 3.33325 3.44207 3.33325 3.00004C3.33325 2.55801 3.50885 2.13409 3.82141 1.82153C4.13397 1.50897 4.55789 1.33337 4.99992 1.33337C7.33325 1.33337 7.99992 4.66671 7.99992 4.66671Z" stroke="#000000" stroke-width="1.5" stroke-linecap="round" stroke-linejoin="round"/>
<path d="M8 4.66671H11C11.442 4.66671 11.866 4.49111 12.1785 4.17855C12.4911 3.86599 12.6667 3.44207 12.6667 3.00004C12.6667 2.55801 12.4911 2.13409 12.1785 1.82153C11.866 1.50897 11.442 1.33337 11 1.33337C8.66667 1.33337 8 4.66671 8 4.66671Z" stroke="#000000" stroke-width="1.5" stroke-linecap="round" stroke-linejoin="round"/>
</svg>
