<svg id="Stashbird" data-name="Stashbird" xmlns="http://www.w3.org/2000/svg" viewBox="0 0 222.55 49.08"><title>Online Casino</title><defs><style>.cls-1,.cls-2{fill:#0080fe;}.cls-1{fill-rule:evenodd;}.cls-3{fill:#12263f;}</style></defs><path class="cls-1" d="M11.43,6.37h0a21.73,21.73,0,0,1,30.73,0l-7.42,7.41a11.24,11.24,0,0,0-15.89,0v0h0a11.25,11.25,0,0,0,0,15.9L11.43,37.1a21.74,21.74,0,0,1,0-30.73Z"/><path class="cls-1" d="M36.55,42.71h0a21.73,21.73,0,0,0,0-30.73l-7.41,7.41a11.25,11.25,0,0,1,0,15.89l0,0h0a11.25,11.25,0,0,1-15.9,0L5.82,42.71a21.73,21.73,0,0,0,30.73,0ZM34.7,40.87a19.12,19.12,0,0,1-25,1.72l3.75-3.75A13.9,13.9,0,0,0,31,37.18h0l0,0,0,0h0a13.89,13.89,0,0,0,1.65-17.53l3.75-3.75a19.12,19.12,0,0,1-1.72,25Z"/><rect class="cls-2" x="30.16" y="34.86" width="5.25" height="8.16" transform="translate(-17.93 34.59) rotate(-45)"/><rect class="cls-2" x="18.56" y="39.13" width="5.25" height="8.58"/><rect class="cls-2" x="33.79" y="24.72" width="7.92" height="5.25"/><polygon class="cls-1" points="5.82 42.71 0 48.53 10.65 45.76 5.82 42.71"/><polygon class="cls-1" points="42.17 6.37 45.99 2.54 37.34 3.31 42.17 6.37"/><path class="cls-3" d="M65.08,17h9v4.5H65.76c-1.59,0-2.37.33-2.32.93,0,.91,1.67,1.78,5,2.61a11.83,11.83,0,0,1,5.1,2.27A5.13,5.13,0,0,1,75,31.27a6.35,6.35,0,0,1-2,5.05A8.36,8.36,0,0,1,67.33,38H59.08l0-4.5h8.15c2-.08,3-.6,3.07-1.55s-.63-1.38-1.92-1.71c-4.33-1.08-7-2.15-7.88-3.22a5.73,5.73,0,0,1-1.4-3.88q0-6.18,6-6.14Zm40.24,6.25a6,6,0,0,1,0,8.49,6,6,0,0,1-10.25-4.24,6,6,0,0,1,10.25-4.25Zm6.25,4.25a10.5,10.5,0,1,0-21,0A10.5,10.5,0,0,0,101.07,38a10,10,0,0,0,6-1.86V38h4.5V27.54Zm104.72,4.24a6,6,0,0,0,0-8.49,6,6,0,0,0-10.24,4.25,6,6,0,0,0,10.24,4.24Zm6.26-4.24a10.5,10.5,0,1,1-21,0,10.54,10.54,0,0,1,16.5-8.65V11h4.5v16.5Zm-34.5,0A10.5,10.5,0,0,1,198.55,17v4.5a6,6,0,0,0-6,6V38h-4.5V27.54Zm-3-10.5V38h-4.5V17Zm-2.25-1.82a2.9,2.9,0,0,1-2.91-2.91,2.92,2.92,0,0,1,5-2.06,2.84,2.84,0,0,1,.84,2.06,2.89,2.89,0,0,1-2.9,2.91ZM171.3,31.78a6,6,0,0,0,0-8.49,6,6,0,0,0-10.24,4.25,6,6,0,0,0,10.24,4.24ZM161.06,18.89a10.51,10.51,0,0,1,16.5,8.65,10.5,10.5,0,1,1-21,0V11h4.5v7.85Zm-24,8.65a6,6,0,1,1,12,0V38h4.5V27.54a10.53,10.53,0,0,0-16.49-8.65V11h-4.5V38h4.5V27.54ZM120.57,17h9v4.5h-8.32c-1.6,0-2.37.33-2.32.93q0,1.37,5,2.61a11.83,11.83,0,0,1,5.1,2.27,5.13,5.13,0,0,1,1.44,3.92,6.35,6.35,0,0,1-2,5.05A8.36,8.36,0,0,1,122.82,38h-8.25l0-4.5h8.15c2-.08,3-.6,3.07-1.55s-.64-1.38-1.92-1.71q-6.5-1.62-7.88-3.22a5.73,5.73,0,0,1-1.4-3.88q0-6.18,6-6.14Zm-39,4.5v6a6,6,0,0,0,6,6V38a10.5,10.5,0,0,1-10.5-10.5V11h4.5v6h6v4.5Z"/></svg>